<?xml version="1.0" encoding="UTF-8"?>
<!DOCTYPE svg PUBLIC "-//W3C//DTD SVG 1.1//EN" "http://www.w3.org/Graphics/SVG/1.1/DTD/svg11.dtd">
<svg xmlns="http://www.w3.org/2000/svg" xmlns:xlink="http://www.w3.org/1999/xlink" version="1.1" width="59px" height="62px" viewBox="-0.5 -0.5 59 62"><defs><linearGradient x1="0%" y1="0%" x2="0%" y2="100%" id="mx-gradient-0095db-1-006391-1-s-0"><stop offset="0%" style="stop-color: rgb(0, 149, 219); stop-opacity: 1;"/><stop offset="100%" style="stop-color: rgb(0, 99, 145); stop-opacity: 1;"/></linearGradient></defs><g><path d="M 19.1 15.9 L 31.84 15.95 L 31.9 22.15 C 32.51 17.83 36.27 15.85 42.74 15.9 C 50.56 15.9 53.54 19.04 55.18 22.83 C 56.52 25.98 57.32 30.18 57.37 34.18 L 57.4 60.56 L 44.62 60.56 L 44.6 34.54 C 44.6 32.1 43.02 28.66 38.41 28.66 C 34.61 28.66 31.86 30.44 31.86 35.21 L 31.88 60.55 L 19.1 60.6 Z M 6.32 12.78 C 3.24 12.78 0.01 10.45 0.01 6.37 C 0.01 2.97 2.55 0 6.32 0 C 10.68 0 12.79 3.62 12.79 6.37 C 12.79 10.19 9.58 12.78 6.32 12.78 Z M 0 60.59 L 0.03 15.91 L 12.77 15.95 L 12.81 60.56 Z" fill="url(#mx-gradient-0095db-1-006391-1-s-0)" stroke="none" pointer-events="all"/></g></svg>