<?xml version="1.0" encoding="UTF-8"?>
<!DOCTYPE svg PUBLIC "-//W3C//DTD SVG 1.1//EN" "http://www.w3.org/Graphics/SVG/1.1/DTD/svg11.dtd">
<svg xmlns="http://www.w3.org/2000/svg" xmlns:xlink="http://www.w3.org/1999/xlink" version="1.1" width="66px" height="48px" viewBox="-0.5 -0.5 66 48"><defs/><g><path d="M 5.51 46.96 L 4.55 0.2 L 61.53 0.25 L 62.25 47 Z" fill="#fffef9" stroke="none" pointer-events="all"/><path d="M 7.16 45.85 L 60.66 9.62 L 62.25 47 L 57.63 47 L 32.44 30.08 L 7.8 46.94 L 7.17 46.97 Z" fill="#ccccbe" stroke="none" pointer-events="all"/><path d="M 7.17 46.97 L 2.89 46.96 C 1.39 46.96 0 45.72 0 44.08 L 0.03 3.26 C 0.03 1.57 1.44 0.26 2.78 0.26 L 4.72 0.2 L 32.4 20.1 L 57.93 1.88 L 58.02 11.81 L 32.44 30.08 L 7.16 11.95 Z" fill="#ed4335" stroke="none" pointer-events="all"/><path d="M 57.63 47 L 57.6 2.1 L 60.41 0.24 L 62.22 0.29 C 63.44 0.29 64.8 1.53 64.8 3.15 L 64.8 43.89 C 64.8 46.05 63.06 47 62.25 47 Z" fill="#a6332a" stroke="none" pointer-events="all"/></g></svg>