<svg width="200" height="80" viewBox="0 0 200 80" xmlns="http://www.w3.org/2000/svg">
  <!-- Background -->
  <rect width="200" height="80" fill="#1a3a52" rx="4"/>
  
  <!-- Building/Construction Icon -->
  <g transform="translate(15, 15)">
    <rect x="5" y="15" width="8" height="35" fill="#FF6B35"/>
    <rect x="18" y="10" width="8" height="40" fill="#FF6B35"/>
    <rect x="31" y="18" width="8" height="32" fill="#FF6B35"/>
    
    <!-- Windows -->
    <rect x="7" y="20" width="2" height="2" fill="#1a3a52"/>
    <rect x="7" y="25" width="2" height="2" fill="#1a3a52"/>
    <rect x="7" y="30" width="2" height="2" fill="#1a3a52"/>
    <rect x="7" y="35" width="2" height="2" fill="#1a3a52"/>
    
    <rect x="20" y="15" width="2" height="2" fill="#1a3a52"/>
    <rect x="20" y="20" width="2" height="2" fill="#1a3a52"/>
    <rect x="20" y="25" width="2" height="2" fill="#1a3a52"/>
    
    <rect x="33" y="23" width="2" height="2" fill="#1a3a52"/>
    <rect x="33" y="28" width="2" height="2" fill="#1a3a52"/>
    
    <!-- Checkmark -->
    <path d="M 0 25 L 3 28 L 8 20" stroke="#4CAF50" stroke-width="2" fill="none" stroke-linecap="round" stroke-linejoin="round"/>
  </g>
  
  <!-- Company Name -->
  <text x="60" y="30" font-family="Arial, sans-serif" font-size="18" font-weight="bold" fill="#FFFFFF">OREL CITY</text>
  <text x="60" y="50" font-family="Arial, sans-serif" font-size="10" fill="#FF6B35">Civil Engineering</text>
</svg>